<svg width="45" height="45" viewBox="0 0 45 45" fill="none" xmlns="http://www.w3.org/2000/svg">
<path fill-rule="evenodd" clip-rule="evenodd" d="M22.4 0.3C22.449 0.948202 22.5835 1.58708 22.8 2.2C22.9952 2.76617 23.2642 3.30414 23.6 3.8C23.7857 4.0704 24.12 4.45055 24.45 4.8C24.9337 5.31235 25.375 5.69235 25.8 6.25C25.9613 6.4616 26.2283 6.8683 26.45 7.2C26.55 7.3494 26.65 7.4994 26.75 7.65L28.8 6.4C28.8729 6.6335 28.9386 6.8633 29 7.1C29.1536 7.69223 29.2705 8.29337 29.35 8.9C29.5792 8.81978 29.813 8.753 30.05 8.7C30.4614 8.61301 30.8797 8.56282 31.3 8.55C31.8074 8.53735 32.3969 8.52085 32.8 8.5C33.2142 8.47855 33.586 8.4257 34 8.4C34.3379 8.38805 34.6734 8.33773 35 8.25C35.387 8.13221 35.7568 7.96411 36.1 7.75C36.545 7.48 37.1877 7.1058 37.7 6.8C37.4153 7.14176 37.1641 7.51012 36.95 7.9C36.7455 8.26575 36.578 8.65099 36.45 9.05C36.3203 9.47312 36.2365 9.90896 36.2 10.35C36.1286 11.1987 36.0607 12.2072 36.1 12.65C36.1545 13.2643 36.0116 13.7782 36 14.3C35.9966 14.4531 35.9926 14.8728 35.7 15.15C35.6003 15.2428 35.4805 15.3112 35.35 15.35C35.5673 15.3566 35.7832 15.3733 36 15.4C36.1821 15.4225 36.3917 15.4582 36.6 15.5C36.8144 15.5431 37.0283 15.594 37.25 15.65C37.5289 15.7205 37.81 15.7865 38.1 15.85C37.96 16.0456 37.8282 16.2431 37.7 16.45C37.5983 16.614 37.4682 16.8459 37.35 17.05C37.1937 17.3197 37.0291 17.5828 36.85 17.85C37.1922 18.1089 37.5206 18.3717 37.85 18.65C38.1113 18.8708 38.4464 19.1724 38.75 19.45C39.1964 19.8583 39.9363 20.5215 40.0357 20.625C40.1853 20.7809 40.5971 21.1747 41.0357 21.425C41.3434 21.5971 41.6708 21.7315 42.0107 21.825C42.6637 22.0105 43.3282 22.1525 44 22.25H38.2L40.6 22.1C39.3465 21.1841 37.981 20.2838 36.85 19.65C36.13 19.2465 35.4223 18.9268 34.5 18.9C33.725 18.8775 33.1903 19.0759 32.4 19.35C31.8406 19.5441 31.2835 19.7241 30.7 19.9C30.7154 19.9894 30.7494 20.0746 30.8 20.15C30.916 20.3204 31.105 20.3875 31.1 20.4C31.0921 20.4192 30.6671 20.262 30.5 20.2L30.7 20.5L31.3 20.85C31.0671 20.9082 30.8239 20.9114 30.5896 20.8593C30.3553 20.8073 30.1363 20.7014 29.95 20.55C29.5815 20.5587 29.214 20.5921 28.85 20.65C28.4742 20.71 28.1688 20.8063 27.8 20.9C27.6252 20.9442 27.4571 21.0115 27.3 21.1C27.2483 21.1307 27.1982 21.1641 27.15 21.2C27.4268 21.5393 27.7893 21.7982 28.2 21.95C27.8455 21.919 27.5458 21.8206 27.3 21.65C27.1311 21.5329 27.0029 21.395 26.8 21.4C26.5275 21.4069 26.3929 21.6654 26.1 21.9C25.8928 22.0629 25.6546 22.1819 25.4 22.25H24.15C24.3028 22.2089 24.4531 22.1588 24.6 22.1C24.8073 22.0154 25.0079 21.9151 25.2 21.8C25.6966 21.507 26.0214 21.3611 26 21.25C25.9579 21.0318 25.0106 21.0804 25 20.95C24.9944 20.8816 25.282 20.8121 25.75 20.65C25.9439 20.5829 26.0847 20.4839 26.25 20.45C26.3639 20.4346 26.4694 20.3819 26.55 20.3C26.5977 20.2415 26.6318 20.1732 26.65 20.1C26.6859 19.9843 26.7108 19.8782 26.7 19.85C26.6322 19.6741 26.1763 19.676 25.75 19.75C25.9073 19.6729 26.0762 19.6223 26.25 19.6C26.41 19.58 26.53 19.5984 26.69 19.575C26.8679 19.5428 27.0398 19.4838 27.2 19.4C27.3635 19.3206 27.4879 19.2322 27.65 19.15C27.9138 19.0163 28.1178 18.9827 28.3 18.8C28.4936 18.6059 28.5675 18.358 28.6 18.25C28.7054 17.8995 28.904 17.525 29.15 17.15C29.1178 17.545 29.0965 18.0265 29.2 18.05C29.3187 18.077 29.5288 17.4774 29.6 17.5C29.65 17.5159 29.595 17.826 29.55 18.05C29.7046 17.9959 29.8546 17.9384 30.0065 17.875C30.17 17.8068 30.332 17.7321 30.5 17.65C30.8078 17.4995 31.1835 17.315 31.4 17.2C31.8319 16.97 32.25 16.728 32.6 16.5C33.1216 16.16 33.5396 15.8184 33.8 15.5C34.0881 15.1477 34.3066 14.7567 34.5 14.25C34.7855 13.5018 34.92 12.5661 34.95 12.25C35.0177 11.5354 35.1361 10.5988 35.25 9.75L34.5 10.55L35.3 9.4C35.3755 9.2694 35.4386 9.13585 35.4 9.1C35.3522 9.0557 35.1664 9.1767 35 9.3L34 10.2L34.85 9.15C34.3982 9.27095 33.9511 9.37035 33.5 9.45C32.5367 9.62 31.7393 9.67725 30.8 9.95C30.1332 10.1436 29.5285 10.3941 28.95 10.9C28.4828 11.3086 28.147 11.8385 28 12.1C27.7379 12.5662 27.362 13.2186 27.25 13.45C26.9985 13.9694 26.7264 14.5119 26.45 15.05H26.75L26.5 15.35C26.6493 15.4175 26.8112 15.4524 26.975 15.4524C27.1388 15.4524 27.3007 15.4175 27.45 15.35C27.1805 15.5665 26.8762 15.7356 26.55 15.85C26.9891 15.8924 27.4321 15.8413 27.85 15.7C27.4503 16.0085 26.9904 16.2299 26.5 16.35C26.2862 16.3954 26.0828 16.4802 25.9 16.6C25.8107 16.6588 25.727 16.7258 25.65 16.8C25.3602 17.3944 25.1903 18.04 25.15 18.7C25.0677 18.5762 25.0157 18.4346 24.9984 18.287C24.981 18.1393 24.9987 17.9896 25.05 17.85C24.9092 17.8368 24.768 17.872 24.65 17.95C24.5282 18.0368 24.4982 18.1535 24.4 18.3C24.3343 18.398 24.266 18.4522 24.2 18.55C24.1164 18.6741 24.0491 18.8086 24 18.95C23.9708 18.7315 23.8846 18.5246 23.75 18.35C23.7292 18.5025 23.6957 18.653 23.65 18.8C23.6058 18.9421 23.5333 19.1075 23.5 19.2C23.425 19.4101 23.3747 19.6283 23.35 19.85C23.2387 19.5444 23.1713 19.2245 23.15 18.9C22.7829 19.1839 22.5336 19.5935 22.45 20.05V19.25C22.4865 19.0728 22.5542 18.9035 22.65 18.75C22.7613 18.573 22.8813 18.4722 23 18.3C23.0551 18.2199 23.1052 18.1364 23.15 18.05L23.3 18.15C23.3182 18.0006 23.3182 17.8494 23.3 17.7C23.2664 17.4264 23.1762 17.2362 23.05 16.95C22.9988 16.8341 22.9494 16.7188 22.9 16.6L23.6 17.6C23.6504 17.4341 23.7004 17.2675 23.75 17.1C23.812 16.9032 23.8621 16.7028 23.9 16.5C23.9426 16.2356 23.9594 15.9677 23.95 15.7C23.9297 15.1548 23.8286 14.6156 23.65 14.1L24.1 14.3L24.25 13.85L24.45 14.15C24.485 14.1007 24.5177 14.0514 24.55 14C24.6691 13.8101 24.7695 13.6092 24.85 13.4C25.045 12.9033 25.1977 12.4335 25.35 11.9C25.4941 11.395 25.6413 10.935 25.7 10.5C25.7746 9.94645 25.7642 9.4627 25.7 9.1C25.5833 8.4411 25.2824 7.89325 25.1 7.6C24.5817 6.76665 23.9516 5.79905 23.6 5.4C23.3802 5.1488 23.1796 4.88137 23 4.6C22.7964 4.26881 22.6288 3.91682 22.5 3.55C22.4667 4.21667 22.4333 4.88333 22.4 5.55V0.3ZM22.4 44.2C22.449 43.5518 22.5835 42.9129 22.8 42.3C22.9952 41.7338 23.2642 41.1959 23.6 40.7C23.7857 40.4296 24.12 40.0495 24.45 39.7C24.9337 39.1877 25.375 38.8077 25.8 38.25C25.9613 38.0384 26.2283 37.6317 26.45 37.3C26.55 37.1506 26.65 37.0006 26.75 36.85L28.8 38.1C28.8729 37.8665 28.9386 37.6367 29 37.4C29.1536 36.8078 29.2705 36.2066 29.35 35.6C29.5792 35.6802 29.813 35.747 30.05 35.8C30.4614 35.887 30.8797 35.9372 31.3 35.95C31.8074 35.9627 32.3969 35.9792 32.8 36C33.2142 36.0215 33.586 36.0743 34 36.1C34.3379 36.1119 34.6734 36.1623 35 36.25C35.387 36.3678 35.7568 36.5359 36.1 36.75C36.545 37.02 37.1877 37.3942 37.7 37.7C37.4153 37.3582 37.1641 36.9899 36.95 36.6C36.7455 36.2342 36.578 35.849 36.45 35.45C36.3203 35.0269 36.2365 34.591 36.2 34.15C36.1286 33.3014 36.0607 32.2928 36.1 31.85C36.1545 31.2357 36.0116 30.7219 36 30.2C35.9966 30.047 35.9926 29.6272 35.7 29.35C35.6003 29.2572 35.4805 29.1888 35.35 29.15C35.5673 29.1434 35.7832 29.1268 36 29.1C36.1821 29.0775 36.3917 29.0418 36.6 29C36.8144 28.957 37.0283 28.9061 37.25 28.85C37.5289 28.7795 37.81 28.7135 38.1 28.65C37.96 28.4544 37.8282 28.2569 37.7 28.05C37.5983 27.886 37.4682 27.6542 37.35 27.45C37.1937 27.1804 37.0291 26.9172 36.85 26.65C37.1922 26.3911 37.5206 26.1283 37.85 25.85C38.1113 25.6292 38.4464 25.3277 38.75 25.05C39.1964 24.6418 39.9363 23.9785 40.0357 23.875C40.1853 23.7191 40.5971 23.3253 41.0357 23.075C41.3434 22.9029 41.6708 22.7685 42.0107 22.675C42.6637 22.4895 43.3282 22.3475 44 22.25H38.2L40.6 22.4C39.3465 23.3159 37.981 24.2162 36.85 24.85C36.13 25.2536 35.4223 25.5733 34.5 25.6C33.725 25.6225 33.1903 25.4242 32.4 25.15C31.8406 24.956 31.2835 24.776 30.7 24.6C30.7154 24.5106 30.7494 24.4254 30.8 24.35C30.916 24.1797 31.105 24.1125 31.1 24.1C31.0921 24.0808 30.6671 24.238 30.5 24.3L30.7 24L31.3 23.65C31.0671 23.5918 30.8239 23.5886 30.5896 23.6407C30.3553 23.6927 30.1363 23.7986 29.95 23.95C29.5815 23.9413 29.214 23.9079 28.85 23.85C28.4742 23.79 28.1688 23.6937 27.8 23.6C27.6252 23.5558 27.4571 23.4885 27.3 23.4C27.2483 23.3693 27.1982 23.3359 27.15 23.3C27.4268 22.9607 27.7893 22.7018 28.2 22.55C27.8455 22.581 27.5458 22.6795 27.3 22.85C27.1311 22.9672 27.0029 23.105 26.8 23.1C26.5275 23.0931 26.3929 22.8347 26.1 22.6C25.8928 22.4371 25.6546 22.3181 25.4 22.25H24.15C24.3028 22.2911 24.4531 22.3412 24.6 22.4C24.8073 22.4846 25.0079 22.5849 25.2 22.7C25.6966 22.9931 26.0214 23.139 26 23.25C25.9579 23.4682 25.0106 23.4197 25 23.55C24.9944 23.6184 25.282 23.6879 25.75 23.85C25.9439 23.9172 26.0847 24.0161 26.25 24.05C26.3639 24.0654 26.4694 24.1181 26.55 24.2C26.5977 24.2585 26.6318 24.3268 26.65 24.4C26.6859 24.5157 26.7108 24.6219 26.7 24.65C26.6322 24.8259 26.1763 24.824 25.75 24.75C25.9073 24.8271 26.0762 24.8777 26.25 24.9C26.41 24.92 26.53 24.9016 26.69 24.925C26.8679 24.9572 27.0398 25.0162 27.2 25.1C27.3635 25.1794 27.4879 25.2678 27.65 25.35C27.9138 25.4838 28.1178 25.5174 28.3 25.7C28.4936 25.8942 28.5675 26.1421 28.6 26.25C28.7054 26.6005 28.904 26.975 29.15 27.35C29.1178 26.955 29.0965 26.4736 29.2 26.45C29.3187 26.423 29.5288 27.0227 29.6 27C29.65 26.9841 29.595 26.674 29.55 26.45C29.7046 26.5041 29.8546 26.5616 30.0065 26.625C30.17 26.6932 30.332 26.7679 30.5 26.85C30.8078 27.0005 31.1835 27.185 31.4 27.3C31.8319 27.53 32.25 27.7721 32.6 28C33.1216 28.34 33.5396 28.6817 33.8 29C34.0881 29.3524 34.3066 29.7433 34.5 30.25C34.7855 30.9982 34.92 31.934 34.95 32.25C35.0177 32.9647 35.1361 33.9013 35.25 34.75L34.5 33.95L35.3 35.1C35.3755 35.2306 35.4386 35.3642 35.4 35.4C35.3522 35.4443 35.1664 35.3233 35 35.2L34 34.3L34.85 35.35C34.3982 35.2291 33.9511 35.1297 33.5 35.05C32.5367 34.88 31.7393 34.8228 30.8 34.55C30.1332 34.3564 29.5285 34.1059 28.95 33.6C28.4828 33.1915 28.147 32.6615 28 32.4C27.7379 31.9338 27.362 31.2814 27.25 31.05C26.9985 30.5307 26.7264 29.9881 26.45 29.45H26.75L26.5 29.15C26.6493 29.0825 26.8112 29.0476 26.975 29.0476C27.1388 29.0476 27.3007 29.0825 27.45 29.15C27.1805 28.9335 26.8762 28.7644 26.55 28.65C26.9891 28.6076 27.4321 28.6587 27.85 28.8C27.4503 28.4915 26.9904 28.2701 26.5 28.15C26.2862 28.1046 26.0828 28.0198 25.9 27.9C25.8107 27.8412 25.727 27.7742 25.65 27.7C25.3602 27.1057 25.1903 26.46 25.15 25.8C25.0677 25.9238 25.0157 26.0654 24.9984 26.213C24.981 26.3607 24.9987 26.5104 25.05 26.65C24.9092 26.6632 24.768 26.628 24.65 26.55C24.5282 26.4633 24.4982 26.3465 24.4 26.2C24.3343 26.102 24.266 26.0478 24.2 25.95C24.1164 25.8259 24.0491 25.6914 24 25.55C23.9708 25.7685 23.8846 25.9754 23.75 26.15C23.7292 25.9975 23.6957 25.847 23.65 25.7C23.6058 25.558 23.5333 25.3926 23.5 25.3C23.425 25.0899 23.3747 24.8717 23.35 24.65C23.2387 24.9556 23.1713 25.2755 23.15 25.6C22.7829 25.3161 22.5336 24.9065 22.45 24.45V25.25C22.4865 25.4272 22.5542 25.5965 22.65 25.75C22.7613 25.9271 22.8813 26.0278 23 26.2C23.0551 26.2801 23.1052 26.3636 23.15 26.45L23.3 26.35C23.3182 26.4995 23.3182 26.6506 23.3 26.8C23.2664 27.0737 23.1762 27.2639 23.05 27.55C22.9988 27.666 22.9494 27.7813 22.9 27.9L23.6 26.9C23.6504 27.0659 23.7004 27.2325 23.75 27.4C23.812 27.5968 23.8621 27.7972 23.9 28C23.9426 28.2644 23.9594 28.5323 23.95 28.8C23.9297 29.3452 23.8286 29.8844 23.65 30.4L24.1 30.2L24.25 30.65L24.45 30.35C24.485 30.3994 24.5177 30.4487 24.55 30.5C24.6691 30.6899 24.7695 30.8908 24.85 31.1C25.045 31.5968 25.1977 32.0666 25.35 32.6C25.4941 33.105 25.6413 33.565 25.7 34C25.7746 34.5536 25.7642 35.0373 25.7 35.4C25.5833 36.0589 25.2824 36.6068 25.1 36.9C24.5817 37.7334 23.9516 38.701 23.6 39.1C23.3802 39.3512 23.1796 39.6186 23 39.9C22.7964 40.2312 22.6288 40.5832 22.5 40.95C22.4667 40.2833 22.4333 39.6167 22.4 38.95V44.2ZM22.4 0.3C22.351 0.948202 22.2165 1.58708 22 2.2C21.8048 2.76617 21.5358 3.30414 21.2 3.8C21.0142 4.0704 20.68 4.45055 20.35 4.8C19.8663 5.31235 19.425 5.69235 19 6.25C18.8386 6.4616 18.5716 6.8683 18.35 7.2C18.25 7.3494 18.15 7.4994 18.05 7.65L16 6.4C15.927 6.6335 15.8614 6.8633 15.8 7.1C15.6464 7.69223 15.5295 8.29337 15.45 8.9C15.2208 8.81978 14.987 8.753 14.75 8.7C14.3386 8.61301 13.9203 8.56282 13.5 8.55C12.9926 8.53735 12.4031 8.52085 12 8.5C11.5857 8.47855 11.214 8.4257 10.8 8.4C10.4621 8.38805 10.1266 8.33773 9.8 8.25C9.41302 8.13221 9.04319 7.96411 8.7 7.75C8.255 7.48 7.61225 7.1058 7.1 6.8C7.38471 7.14176 7.63586 7.51012 7.85 7.9C8.0545 8.26575 8.22199 8.65099 8.35 9.05C8.4797 9.47312 8.56352 9.90896 8.6 10.35C8.6714 11.1987 8.7393 12.2072 8.7 12.65C8.64545 13.2643 8.78835 13.7782 8.8 14.3C8.8034 14.4531 8.8074 14.8728 9.1 15.15C9.19969 15.2428 9.31947 15.3112 9.45 15.35C9.23265 15.3566 9.01675 15.3733 8.8 15.4C8.6179 15.4225 8.4083 15.4582 8.2 15.5C7.9856 15.5431 7.77165 15.594 7.55 15.65C7.2711 15.7205 6.99 15.7865 6.7 15.85C6.84 16.0456 6.97175 16.2431 7.1 16.45C7.20165 16.614 7.33175 16.8459 7.45 17.05C7.60625 17.3197 7.77085 17.5828 7.95 17.85C7.6078 18.1089 7.2794 18.3717 6.95 18.65C6.6887 18.8708 6.3536 19.1724 6.05 19.45C5.6036 19.8583 4.86365 20.5215 4.7643 20.625C4.6147 20.7809 4.20285 21.1747 3.7643 21.425C3.45661 21.5971 3.12923 21.7315 2.7893 21.825C2.13632 22.0105 1.47176 22.1525 0.799999 22.25H6.6L4.2 22.1C5.45345 21.1841 6.81895 20.2838 7.95 19.65C8.67 19.2465 9.37765 18.9268 10.3 18.9C11.075 18.8775 11.6097 19.0759 12.4 19.35C12.9594 19.5441 13.5164 19.7241 14.1 19.9C14.0846 19.9894 14.0505 20.0746 14 20.15C13.8839 20.3204 13.695 20.3875 13.7 20.4C13.7078 20.4192 14.1329 20.262 14.3 20.2L14.1 20.5L13.5 20.85C13.7329 20.9082 13.9761 20.9114 14.2104 20.8593C14.4447 20.8073 14.6637 20.7014 14.85 20.55C15.2185 20.5587 15.586 20.5921 15.95 20.65C16.3258 20.71 16.6312 20.8063 17 20.9C17.1748 20.9442 17.3429 21.0115 17.5 21.1C17.5517 21.1307 17.6018 21.1641 17.65 21.2C17.3732 21.5393 17.0107 21.7982 16.6 21.95C16.9545 21.919 17.2542 21.8206 17.5 21.65C17.6688 21.5329 17.797 21.395 18 21.4C18.2724 21.4069 18.4071 21.6654 18.7 21.9C18.9072 22.0629 19.1454 22.1819 19.4 22.25H20.65C20.4972 22.2089 20.3469 22.1588 20.2 22.1C19.9927 22.0154 19.7921 21.9151 19.6 21.8C19.1034 21.507 18.7786 21.3611 18.8 21.25C18.842 21.0318 19.7894 21.0804 19.8 20.95C19.8055 20.8816 19.5179 20.8121 19.05 20.65C18.856 20.5829 18.7153 20.4839 18.55 20.45C18.4361 20.4346 18.3306 20.3819 18.25 20.3C18.2023 20.2415 18.1682 20.1732 18.15 20.1C18.1141 19.9843 18.0891 19.8782 18.1 19.85C18.1677 19.6741 18.6236 19.676 19.05 19.75C18.8927 19.6729 18.7238 19.6223 18.55 19.6C18.39 19.58 18.27 19.5984 18.11 19.575C17.9321 19.5428 17.7602 19.4838 17.6 19.4C17.4365 19.3206 17.3121 19.2322 17.15 19.15C16.8861 19.0163 16.6821 18.9827 16.5 18.8C16.3064 18.6059 16.2325 18.358 16.2 18.25C16.0945 17.8995 15.8959 17.525 15.65 17.15C15.6821 17.545 15.7034 18.0265 15.6 18.05C15.4812 18.077 15.2711 17.4774 15.2 17.5C15.15 17.5159 15.205 17.826 15.25 18.05C15.0953 17.9959 14.9453 17.9384 14.7934 17.875C14.63 17.8068 14.4679 17.7321 14.3 17.65C13.9921 17.4995 13.6164 17.315 13.4 17.2C12.968 16.97 12.55 16.728 12.2 16.5C11.6783 16.16 11.2603 15.8184 11 15.5C10.7118 15.1477 10.4933 14.7567 10.3 14.25C10.0145 13.5018 9.88 12.5661 9.85 12.25C9.7823 11.5354 9.6639 10.5988 9.55 9.75L10.3 10.55L9.5 9.4C9.42445 9.2694 9.36135 9.13585 9.4 9.1C9.4478 9.0557 9.63355 9.1767 9.8 9.3L10.8 10.2L9.95 9.15C10.4018 9.27095 10.8489 9.37035 11.3 9.45C12.2632 9.62 13.0606 9.67725 14 9.95C14.6667 10.1436 15.2715 10.3941 15.85 10.9C16.3172 11.3086 16.653 11.8385 16.8 12.1C17.0621 12.5662 17.4379 13.2186 17.55 13.45C17.8015 13.9694 18.0735 14.5119 18.35 15.05H18.05L18.3 15.35C18.1507 15.4175 17.9888 15.4524 17.825 15.4524C17.6612 15.4524 17.4993 15.4175 17.35 15.35C17.6195 15.5665 17.9238 15.7356 18.25 15.85C17.8109 15.8924 17.3679 15.8413 16.95 15.7C17.3497 16.0085 17.8096 16.2299 18.3 16.35C18.5138 16.3954 18.7172 16.4802 18.9 16.6C18.9893 16.6588 19.073 16.7258 19.15 16.8C19.4398 17.3944 19.6097 18.04 19.65 18.7C19.7323 18.5762 19.7843 18.4346 19.8016 18.287C19.819 18.1393 19.8013 17.9896 19.75 17.85C19.8908 17.8368 20.032 17.872 20.15 17.95C20.2718 18.0368 20.3018 18.1535 20.4 18.3C20.4656 18.398 20.534 18.4522 20.6 18.55C20.6836 18.6741 20.7509 18.8086 20.8 18.95C20.8292 18.7315 20.9154 18.5246 21.05 18.35C21.0708 18.5025 21.1043 18.653 21.15 18.8C21.1941 18.9421 21.2666 19.1075 21.3 19.2C21.375 19.4101 21.4253 19.6283 21.45 19.85C21.5613 19.5444 21.6287 19.2245 21.65 18.9C22.0171 19.1839 22.2664 19.5935 22.35 20.05V19.25C22.3135 19.0728 22.2458 18.9035 22.15 18.75C22.0387 18.573 21.9186 18.4722 21.8 18.3C21.7449 18.2199 21.6948 18.1364 21.65 18.05L21.5 18.15C21.4818 18.0006 21.4818 17.8494 21.5 17.7C21.5335 17.4264 21.6237 17.2362 21.75 16.95C21.8011 16.8341 21.8505 16.7188 21.9 16.6L21.2 17.6C21.1496 17.4341 21.0996 17.2675 21.05 17.1C20.988 16.9032 20.9379 16.7028 20.9 16.5C20.8574 16.2356 20.8406 15.9677 20.85 15.7C20.8703 15.1548 20.9714 14.6156 21.15 14.1L20.7 14.3L20.55 13.85L20.35 14.15C20.315 14.1007 20.2823 14.0514 20.25 14C20.1309 13.8101 20.0305 13.6092 19.95 13.4C19.755 12.9033 19.6022 12.4335 19.45 11.9C19.3059 11.395 19.1586 10.935 19.1 10.5C19.0254 9.94645 19.0357 9.4627 19.1 9.1C19.2167 8.4411 19.5176 7.89325 19.7 7.6C20.2182 6.76665 20.8483 5.79905 21.2 5.4C21.4198 5.1488 21.6204 4.88137 21.8 4.6C22.0036 4.26881 22.1712 3.91682 22.3 3.55C22.3333 4.21667 22.3667 4.88333 22.4 5.55V0.3ZM22.4 44.2C22.351 43.5518 22.2165 42.9129 22 42.3C21.8048 41.7338 21.5358 41.1959 21.2 40.7C21.0142 40.4296 20.68 40.0495 20.35 39.7C19.8663 39.1877 19.425 38.8077 19 38.25C18.8386 38.0384 18.5716 37.6317 18.35 37.3C18.25 37.1506 18.15 37.0006 18.05 36.85L16 38.1C15.927 37.8665 15.8614 37.6367 15.8 37.4C15.6464 36.8078 15.5295 36.2066 15.45 35.6C15.2208 35.6802 14.987 35.747 14.75 35.8C14.3386 35.887 13.9203 35.9372 13.5 35.95C12.9926 35.9627 12.4031 35.9792 12 36C11.5857 36.0215 11.214 36.0743 10.8 36.1C10.4621 36.1119 10.1266 36.1623 9.8 36.25C9.41302 36.3678 9.04319 36.5359 8.7 36.75C8.255 37.02 7.61225 37.3942 7.1 37.7C7.38471 37.3582 7.63586 36.9899 7.85 36.6C8.0545 36.2342 8.22199 35.849 8.35 35.45C8.4797 35.0269 8.56352 34.591 8.6 34.15C8.6714 33.3014 8.7393 32.2928 8.7 31.85C8.64545 31.2357 8.78835 30.7219 8.8 30.2C8.8034 30.047 8.8074 29.6272 9.1 29.35C9.19969 29.2572 9.31947 29.1888 9.45 29.15C9.23265 29.1434 9.01675 29.1268 8.8 29.1C8.6179 29.0775 8.4083 29.0418 8.2 29C7.9856 28.957 7.77165 28.9061 7.55 28.85C7.2711 28.7795 6.99 28.7135 6.7 28.65C6.84 28.4544 6.97175 28.2569 7.1 28.05C7.20165 27.886 7.33175 27.6542 7.45 27.45C7.60625 27.1804 7.77085 26.9172 7.95 26.65C7.6078 26.3911 7.2794 26.1283 6.95 25.85C6.6887 25.6292 6.3536 25.3277 6.05 25.05C5.6036 24.6418 4.86365 23.9785 4.7643 23.875C4.6147 23.7191 4.20285 23.3253 3.7643 23.075C3.45661 22.9029 3.12923 22.7685 2.7893 22.675C2.13632 22.4895 1.47176 22.3475 0.799999 22.25H6.6L4.2 22.4C5.45345 23.3159 6.81895 24.2162 7.95 24.85C8.67 25.2536 9.37765 25.5733 10.3 25.6C11.075 25.6225 11.6097 25.4242 12.4 25.15C12.9594 24.956 13.5164 24.776 14.1 24.6C14.0846 24.5106 14.0505 24.4254 14 24.35C13.8839 24.1797 13.695 24.1125 13.7 24.1C13.7078 24.0808 14.1329 24.238 14.3 24.3L14.1 24L13.5 23.65C13.7329 23.5918 13.9761 23.5886 14.2104 23.6407C14.4447 23.6927 14.6637 23.7986 14.85 23.95C15.2185 23.9413 15.586 23.9079 15.95 23.85C16.3258 23.79 16.6312 23.6937 17 23.6C17.1748 23.5558 17.3429 23.4885 17.5 23.4C17.5517 23.3693 17.6018 23.3359 17.65 23.3C17.3732 22.9607 17.0107 22.7018 16.6 22.55C16.9545 22.581 17.2542 22.6795 17.5 22.85C17.6688 22.9672 17.797 23.105 18 23.1C18.2724 23.0931 18.4071 22.8347 18.7 22.6C18.9072 22.4371 19.1454 22.3181 19.4 22.25H20.65C20.4972 22.2911 20.3469 22.3412 20.2 22.4C19.9927 22.4846 19.7921 22.5849 19.6 22.7C19.1034 22.9931 18.7786 23.139 18.8 23.25C18.842 23.4682 19.7894 23.4197 19.8 23.55C19.8055 23.6184 19.5179 23.6879 19.05 23.85C18.856 23.9172 18.7153 24.0161 18.55 24.05C18.4361 24.0654 18.3306 24.1181 18.25 24.2C18.2023 24.2585 18.1682 24.3268 18.15 24.4C18.1141 24.5157 18.0891 24.6219 18.1 24.65C18.1677 24.8259 18.6236 24.824 19.05 24.75C18.8927 24.8271 18.7238 24.8777 18.55 24.9C18.39 24.92 18.27 24.9016 18.11 24.925C17.9321 24.9572 17.7602 25.0162 17.6 25.1C17.4365 25.1794 17.3121 25.2678 17.15 25.35C16.8861 25.4838 16.6821 25.5174 16.5 25.7C16.3064 25.8942 16.2325 26.1421 16.2 26.25C16.0945 26.6005 15.8959 26.975 15.65 27.35C15.6821 26.955 15.7034 26.4736 15.6 26.45C15.4812 26.423 15.2711 27.0227 15.2 27C15.15 26.9841 15.205 26.674 15.25 26.45C15.0953 26.5041 14.9453 26.5616 14.7934 26.625C14.63 26.6932 14.4679 26.7679 14.3 26.85C13.9921 27.0005 13.6164 27.185 13.4 27.3C12.968 27.53 12.55 27.7721 12.2 28C11.6783 28.34 11.2603 28.6817 11 29C10.7118 29.3524 10.4933 29.7433 10.3 30.25C10.0145 30.9982 9.88 31.934 9.85 32.25C9.7823 32.9647 9.6639 33.9013 9.55 34.75L10.3 33.95L9.5 35.1C9.42445 35.2306 9.36135 35.3642 9.4 35.4C9.4478 35.4443 9.63355 35.3233 9.8 35.2L10.8 34.3L9.95 35.35C10.4018 35.2291 10.8489 35.1297 11.3 35.05C12.2632 34.88 13.0606 34.8228 14 34.55C14.6667 34.3564 15.2715 34.1059 15.85 33.6C16.3172 33.1915 16.653 32.6615 16.8 32.4C17.0621 31.9338 17.4379 31.2814 17.55 31.05C17.8015 30.5307 18.0735 29.9881 18.35 29.45H18.05L18.3 29.15C18.1507 29.0825 17.9888 29.0476 17.825 29.0476C17.6612 29.0476 17.4993 29.0825 17.35 29.15C17.6195 28.9335 17.9238 28.7644 18.25 28.65C17.8109 28.6076 17.3679 28.6587 16.95 28.8C17.3497 28.4915 17.8096 28.2701 18.3 28.15C18.5138 28.1046 18.7172 28.0198 18.9 27.9C18.9893 27.8412 19.073 27.7742 19.15 27.7C19.4398 27.1057 19.6097 26.46 19.65 25.8C19.7323 25.9238 19.7843 26.0654 19.8016 26.213C19.819 26.3607 19.8013 26.5104 19.75 26.65C19.8908 26.6632 20.032 26.628 20.15 26.55C20.2718 26.4633 20.3018 26.3465 20.4 26.2C20.4656 26.102 20.534 26.0478 20.6 25.95C20.6836 25.8259 20.7509 25.6914 20.8 25.55C20.8292 25.7685 20.9154 25.9754 21.05 26.15C21.0708 25.9975 21.1043 25.847 21.15 25.7C21.1941 25.558 21.2666 25.3926 21.3 25.3C21.375 25.0899 21.4253 24.8717 21.45 24.65C21.5613 24.9556 21.6287 25.2755 21.65 25.6C22.0171 25.3161 22.2664 24.9065 22.35 24.45V25.25C22.3135 25.4272 22.2458 25.5965 22.15 25.75C22.0387 25.9271 21.9186 26.0278 21.8 26.2C21.7449 26.2801 21.6948 26.3636 21.65 26.45L21.5 26.35C21.4818 26.4995 21.4818 26.6506 21.5 26.8C21.5335 27.0737 21.6237 27.2639 21.75 27.55C21.8011 27.666 21.8505 27.7813 21.9 27.9L21.2 26.9C21.1496 27.0659 21.0996 27.2325 21.05 27.4C20.988 27.5968 20.9379 27.7972 20.9 28C20.8574 28.2644 20.8406 28.5323 20.85 28.8C20.8703 29.3452 20.9714 29.8844 21.15 30.4L20.7 30.2L20.55 30.65L20.35 30.35C20.315 30.3994 20.2823 30.4487 20.25 30.5C20.1309 30.6899 20.0305 30.8908 19.95 31.1C19.755 31.5968 19.6022 32.0666 19.45 32.6C19.3059 33.105 19.1586 33.565 19.1 34C19.0254 34.5536 19.0357 35.0373 19.1 35.4C19.2167 36.0589 19.5176 36.6068 19.7 36.9C20.2182 37.7334 20.8483 38.701 21.2 39.1C21.4198 39.3512 21.6204 39.6186 21.8 39.9C22.0036 40.2312 22.1712 40.5832 22.3 40.95C22.3333 40.2833 22.3667 39.6167 22.4 38.95V44.2Z" fill="#000000"/>
<path d="M22.4 0.3C22.449 0.948202 22.5835 1.58708 22.8 2.2C22.9952 2.76617 23.2642 3.30414 23.6 3.8C23.7857 4.0704 24.12 4.45055 24.45 4.8C24.9337 5.31235 25.375 5.69235 25.8 6.25C25.9613 6.4616 26.2283 6.8683 26.45 7.2C26.55 7.3494 26.65 7.4994 26.75 7.65L28.8 6.4C28.8729 6.6335 28.9386 6.8633 29 7.1C29.1536 7.69223 29.2705 8.29337 29.35 8.9C29.5792 8.81978 29.813 8.753 30.05 8.7C30.4614 8.61301 30.8797 8.56282 31.3 8.55C31.8074 8.53735 32.3969 8.52085 32.8 8.5C33.2142 8.47855 33.586 8.4257 34 8.4C34.3379 8.38805 34.6734 8.33773 35 8.25C35.387 8.13221 35.7568 7.96411 36.1 7.75C36.545 7.48 37.1877 7.1058 37.7 6.8C37.4153 7.14176 37.1641 7.51012 36.95 7.9C36.7455 8.26575 36.578 8.65099 36.45 9.05C36.3203 9.47312 36.2365 9.90896 36.2 10.35C36.1286 11.1987 36.0607 12.2072 36.1 12.65C36.1545 13.2643 36.0116 13.7782 36 14.3C35.9966 14.4531 35.9926 14.8728 35.7 15.15C35.6003 15.2428 35.4805 15.3112 35.35 15.35C35.5673 15.3566 35.7832 15.3733 36 15.4C36.1821 15.4225 36.3917 15.4582 36.6 15.5C36.8144 15.5431 37.0283 15.594 37.25 15.65C37.5289 15.7205 37.81 15.7865 38.1 15.85C37.96 16.0456 37.8282 16.2431 37.7 16.45C37.5983 16.614 37.4682 16.8459 37.35 17.05C37.1937 17.3197 37.0291 17.5828 36.85 17.85C37.1922 18.1089 37.5206 18.3717 37.85 18.65C38.1113 18.8708 38.4464 19.1724 38.75 19.45C39.1964 19.8583 39.9363 20.5215 40.0357 20.625C40.1853 20.7809 40.5971 21.1747 41.0357 21.425C41.3434 21.5971 41.6708 21.7315 42.0107 21.825C42.6637 22.0105 43.3282 22.1525 44 22.25M22.4 0.3V5.55M22.4 0.3C22.351 0.948202 22.2165 1.58708 22 2.2C21.8048 2.76617 21.5358 3.30414 21.2 3.8C21.0142 4.0704 20.68 4.45055 20.35 4.8C19.8663 5.31235 19.425 5.69235 19 6.25C18.8386 6.4616 18.5716 6.8683 18.35 7.2C18.25 7.3494 18.15 7.4994 18.05 7.65L16 6.4C15.927 6.6335 15.8614 6.8633 15.8 7.1C15.6464 7.69223 15.5295 8.29337 15.45 8.9C15.2208 8.81978 14.987 8.753 14.75 8.7C14.3386 8.61301 13.9203 8.56282 13.5 8.55C12.9926 8.53735 12.4031 8.52085 12 8.5C11.5857 8.47855 11.214 8.4257 10.8 8.4C10.4621 8.38805 10.1266 8.33773 9.8 8.25C9.41302 8.13221 9.04319 7.96411 8.7 7.75C8.255 7.48 7.61225 7.1058 7.1 6.8C7.38471 7.14176 7.63586 7.51012 7.85 7.9C8.0545 8.26575 8.22199 8.65099 8.35 9.05C8.4797 9.47312 8.56352 9.90896 8.6 10.35C8.6714 11.1987 8.7393 12.2072 8.7 12.65C8.64545 13.2643 8.78835 13.7782 8.8 14.3C8.8034 14.4531 8.8074 14.8728 9.1 15.15C9.19969 15.2428 9.31947 15.3112 9.45 15.35C9.23265 15.3566 9.01675 15.3733 8.8 15.4C8.6179 15.4225 8.4083 15.4582 8.2 15.5C7.9856 15.5431 7.77165 15.594 7.55 15.65C7.2711 15.7205 6.99 15.7865 6.7 15.85C6.84 16.0456 6.97175 16.2431 7.1 16.45C7.20165 16.614 7.33175 16.8459 7.45 17.05C7.60625 17.3197 7.77085 17.5828 7.95 17.85C7.6078 18.1089 7.2794 18.3717 6.95 18.65C6.6887 18.8708 6.3536 19.1724 6.05 19.45C5.6036 19.8583 4.86365 20.5215 4.7643 20.625C4.6147 20.7809 4.20285 21.1747 3.7643 21.425C3.45661 21.5971 3.12923 21.7315 2.7893 21.825C2.13632 22.0105 1.47176 22.1525 0.799999 22.25M44 22.25H38.2M44 22.25C43.3282 22.3475 42.6637 22.4895 42.0107 22.675C41.6708 22.7685 41.3434 22.9029 41.0357 23.075C40.5971 23.3253 40.1853 23.7191 40.0357 23.875C39.9363 23.9785 39.1964 24.6418 38.75 25.05C38.4464 25.3277 38.1113 25.6292 37.85 25.85C37.5206 26.1283 37.1922 26.3911 36.85 26.65C37.0291 26.9172 37.1937 27.1804 37.35 27.45C37.4682 27.6542 37.5983 27.886 37.7 28.05C37.8282 28.2569 37.96 28.4544 38.1 28.65C37.81 28.7135 37.5289 28.7795 37.25 28.85C37.0283 28.9061 36.8144 28.957 36.6 29C36.3917 29.0418 36.1821 29.0775 36 29.1C35.7832 29.1268 35.5673 29.1434 35.35 29.15C35.4805 29.1888 35.6003 29.2572 35.7 29.35C35.9926 29.6272 35.9966 30.047 36 30.2C36.0116 30.7219 36.1545 31.2357 36.1 31.85C36.0607 32.2928 36.1286 33.3014 36.2 34.15C36.2365 34.591 36.3203 35.0269 36.45 35.45C36.578 35.849 36.7455 36.2342 36.95 36.6C37.1641 36.9899 37.4153 37.3582 37.7 37.7C37.1877 37.3942 36.545 37.02 36.1 36.75C35.7568 36.5359 35.387 36.3678 35 36.25C34.6734 36.1623 34.3379 36.1119 34 36.1C33.586 36.0743 33.2142 36.0215 32.8 36C32.3969 35.9792 31.8074 35.9627 31.3 35.95C30.8797 35.9372 30.4614 35.887 30.05 35.8C29.813 35.747 29.5792 35.6802 29.35 35.6C29.2705 36.2066 29.1536 36.8078 29 37.4C28.9386 37.6367 28.8729 37.8665 28.8 38.1L26.75 36.85C26.65 37.0006 26.55 37.1506 26.45 37.3C26.2283 37.6317 25.9613 38.0384 25.8 38.25C25.375 38.8077 24.9337 39.1877 24.45 39.7C24.12 40.0495 23.7857 40.4296 23.6 40.7C23.2642 41.1959 22.9952 41.7338 22.8 42.3C22.5835 42.9129 22.449 43.5518 22.4 44.2M38.2 22.25L40.6 22.1C39.3465 21.1841 37.981 20.2838 36.85 19.65C36.13 19.2465 35.4223 18.9268 34.5 18.9C33.725 18.8775 33.1903 19.0759 32.4 19.35C31.8406 19.5441 31.2835 19.7241 30.7 19.9C30.7154 19.9894 30.7494 20.0746 30.8 20.15C30.916 20.3204 31.105 20.3875 31.1 20.4C31.0921 20.4192 30.6671 20.262 30.5 20.2L30.7 20.5L31.3 20.85C31.0671 20.9082 30.8239 20.9114 30.5896 20.8593C30.3553 20.8073 30.1363 20.7014 29.95 20.55C29.5815 20.5587 29.214 20.5921 28.85 20.65C28.4742 20.71 28.1688 20.8063 27.8 20.9C27.6252 20.9442 27.4571 21.0115 27.3 21.1C27.2483 21.1307 27.1982 21.1641 27.15 21.2C27.4268 21.5393 27.7893 21.7982 28.2 21.95C27.8455 21.919 27.5458 21.8206 27.3 21.65C27.1311 21.5329 27.0029 21.395 26.8 21.4C26.5275 21.4069 26.3929 21.6654 26.1 21.9C25.8928 22.0629 25.6546 22.1819 25.4 22.25M38.2 22.25L40.6 22.4C39.3465 23.3159 37.981 24.2162 36.85 24.85C36.13 25.2536 35.4223 25.5733 34.5 25.6C33.725 25.6225 33.1903 25.4242 32.4 25.15C31.8406 24.956 31.2835 24.776 30.7 24.6C30.7154 24.5106 30.7494 24.4254 30.8 24.35C30.916 24.1797 31.105 24.1125 31.1 24.1C31.0921 24.0808 30.6671 24.238 30.5 24.3L30.7 24L31.3 23.65C31.0671 23.5918 30.8239 23.5886 30.5896 23.6407C30.3553 23.6927 30.1363 23.7986 29.95 23.95C29.5815 23.9413 29.214 23.9079 28.85 23.85C28.4742 23.79 28.1688 23.6937 27.8 23.6C27.6252 23.5558 27.4571 23.4885 27.3 23.4C27.2483 23.3693 27.1982 23.3359 27.15 23.3C27.4268 22.9607 27.7893 22.7018 28.2 22.55C27.8455 22.581 27.5458 22.6795 27.3 22.85C27.1311 22.9672 27.0029 23.105 26.8 23.1C26.5275 23.0931 26.3929 22.8347 26.1 22.6C25.8928 22.4371 25.6546 22.3181 25.4 22.25M25.4 22.25H24.15M24.15 22.25C24.3028 22.2089 24.4531 22.1588 24.6 22.1C24.8073 22.0154 25.0079 21.9151 25.2 21.8C25.6966 21.507 26.0214 21.3611 26 21.25C25.9579 21.0318 25.0106 21.0804 25 20.95C24.9944 20.8816 25.282 20.8121 25.75 20.65C25.9439 20.5829 26.0847 20.4839 26.25 20.45C26.3639 20.4346 26.4694 20.3819 26.55 20.3C26.5977 20.2415 26.6318 20.1732 26.65 20.1C26.6859 19.9843 26.7108 19.8782 26.7 19.85C26.6322 19.6741 26.1763 19.676 25.75 19.75C25.9073 19.6729 26.0762 19.6223 26.25 19.6C26.41 19.58 26.53 19.5984 26.69 19.575C26.8679 19.5428 27.0398 19.4838 27.2 19.4C27.3635 19.3206 27.4879 19.2322 27.65 19.15C27.9138 19.0163 28.1178 18.9827 28.3 18.8C28.4936 18.6059 28.5675 18.358 28.6 18.25C28.7054 17.8995 28.904 17.525 29.15 17.15C29.1178 17.545 29.0965 18.0265 29.2 18.05C29.3187 18.077 29.5288 17.4774 29.6 17.5C29.65 17.5159 29.595 17.826 29.55 18.05C29.7046 17.9959 29.8546 17.9384 30.0065 17.875C30.17 17.8068 30.332 17.7321 30.5 17.65C30.8078 17.4995 31.1835 17.315 31.4 17.2C31.8319 16.97 32.25 16.728 32.6 16.5C33.1216 16.16 33.5396 15.8184 33.8 15.5C34.0881 15.1477 34.3066 14.7567 34.5 14.25C34.7855 13.5018 34.92 12.5661 34.95 12.25C35.0177 11.5354 35.1361 10.5988 35.25 9.75L34.5 10.55L35.3 9.4C35.3755 9.2694 35.4386 9.13585 35.4 9.1C35.3522 9.0557 35.1664 9.1767 35 9.3L34 10.2L34.85 9.15C34.3982 9.27095 33.9511 9.37035 33.5 9.45C32.5367 9.62 31.7393 9.67725 30.8 9.95C30.1332 10.1436 29.5285 10.3941 28.95 10.9C28.4828 11.3086 28.147 11.8385 28 12.1C27.7379 12.5662 27.362 13.2186 27.25 13.45C26.9985 13.9694 26.7264 14.5119 26.45 15.05H26.75L26.5 15.35C26.6493 15.4175 26.8112 15.4524 26.975 15.4524C27.1388 15.4524 27.3007 15.4175 27.45 15.35C27.1805 15.5665 26.8762 15.7356 26.55 15.85C26.9891 15.8924 27.4321 15.8413 27.85 15.7C27.4503 16.0085 26.9904 16.2299 26.5 16.35C26.2862 16.3954 26.0828 16.4802 25.9 16.6C25.8107 16.6588 25.727 16.7258 25.65 16.8C25.3602 17.3944 25.1903 18.04 25.15 18.7C25.0677 18.5762 25.0157 18.4346 24.9984 18.287C24.981 18.1393 24.9987 17.9896 25.05 17.85C24.9092 17.8368 24.768 17.872 24.65 17.95C24.5282 18.0368 24.4982 18.1535 24.4 18.3C24.3343 18.398 24.266 18.4522 24.2 18.55C24.1164 18.6741 24.0491 18.8086 24 18.95C23.9708 18.7315 23.8846 18.5246 23.75 18.35C23.7292 18.5025 23.6957 18.653 23.65 18.8C23.6058 18.9421 23.5333 19.1075 23.5 19.2C23.425 19.4101 23.3747 19.6283 23.35 19.85C23.2387 19.5444 23.1713 19.2245 23.15 18.9C22.7829 19.1839 22.5336 19.5935 22.45 20.05V19.25C22.4865 19.0728 22.5542 18.9035 22.65 18.75C22.7613 18.573 22.8813 18.4722 23 18.3C23.0551 18.2199 23.1052 18.1364 23.15 18.05L23.3 18.15C23.3182 18.0006 23.3182 17.8494 23.3 17.7C23.2664 17.4264 23.1762 17.2362 23.05 16.95C22.9988 16.8341 22.9494 16.7188 22.9 16.6L23.6 17.6C23.6504 17.4341 23.7004 17.2675 23.75 17.1C23.812 16.9032 23.8621 16.7028 23.9 16.5C23.9426 16.2356 23.9594 15.9677 23.95 15.7C23.9297 15.1548 23.8286 14.6156 23.65 14.1L24.1 14.3L24.25 13.85L24.45 14.15C24.485 14.1007 24.5177 14.0514 24.55 14C24.6691 13.8101 24.7695 13.6092 24.85 13.4C25.045 12.9033 25.1977 12.4335 25.35 11.9C25.4941 11.395 25.6413 10.935 25.7 10.5C25.7746 9.94645 25.7642 9.4627 25.7 9.1C25.5833 8.4411 25.2824 7.89325 25.1 7.6C24.5817 6.76665 23.9516 5.79905 23.6 5.4C23.3802 5.1488 23.1796 4.88137 23 4.6C22.7964 4.26881 22.6288 3.91682 22.5 3.55C22.4667 4.21667 22.4333 4.88333 22.4 5.55M24.15 22.25C24.3028 22.2911 24.4531 22.3412 24.6 22.4C24.8073 22.4846 25.0079 22.5849 25.2 22.7C25.6966 22.9931 26.0214 23.139 26 23.25C25.9579 23.4682 25.0106 23.4197 25 23.55C24.9944 23.6184 25.282 23.6879 25.75 23.85C25.9439 23.9172 26.0847 24.0161 26.25 24.05C26.3639 24.0654 26.4694 24.1181 26.55 24.2C26.5977 24.2585 26.6318 24.3268 26.65 24.4C26.6859 24.5157 26.7108 24.6219 26.7 24.65C26.6322 24.8259 26.1763 24.824 25.75 24.75C25.9073 24.8271 26.0762 24.8777 26.25 24.9C26.41 24.92 26.53 24.9016 26.69 24.925C26.8679 24.9572 27.0398 25.0162 27.2 25.1C27.3635 25.1794 27.4879 25.2678 27.65 25.35C27.9138 25.4838 28.1178 25.5174 28.3 25.7C28.4936 25.8942 28.5675 26.1421 28.6 26.25C28.7054 26.6005 28.904 26.975 29.15 27.35C29.1178 26.955 29.0965 26.4736 29.2 26.45C29.3187 26.423 29.5288 27.0227 29.6 27C29.65 26.9841 29.595 26.674 29.55 26.45C29.7046 26.5041 29.8546 26.5616 30.0065 26.625C30.17 26.6932 30.332 26.7679 30.5 26.85C30.8078 27.0005 31.1835 27.185 31.4 27.3C31.8319 27.53 32.25 27.7721 32.6 28C33.1216 28.34 33.5396 28.6817 33.8 29C34.0881 29.3524 34.3066 29.7433 34.5 30.25C34.7855 30.9982 34.92 31.934 34.95 32.25C35.0177 32.9647 35.1361 33.9013 35.25 34.75L34.5 33.95L35.3 35.1C35.3755 35.2306 35.4386 35.3642 35.4 35.4C35.3522 35.4443 35.1664 35.3233 35 35.2L34 34.3L34.85 35.35C34.3982 35.2291 33.9511 35.1297 33.5 35.05C32.5367 34.88 31.7393 34.8228 30.8 34.55C30.1332 34.3564 29.5285 34.1059 28.95 33.6C28.4828 33.1915 28.147 32.6615 28 32.4C27.7379 31.9338 27.362 31.2814 27.25 31.05C26.9985 30.5307 26.7264 29.9881 26.45 29.45H26.75L26.5 29.15C26.6493 29.0825 26.8112 29.0476 26.975 29.0476C27.1388 29.0476 27.3007 29.0825 27.45 29.15C27.1805 28.9335 26.8762 28.7644 26.55 28.65C26.9891 28.6076 27.4321 28.6587 27.85 28.8C27.4503 28.4915 26.9904 28.2701 26.5 28.15C26.2862 28.1046 26.0828 28.0198 25.9 27.9C25.8107 27.8412 25.727 27.7742 25.65 27.7C25.3602 27.1057 25.1903 26.46 25.15 25.8C25.0677 25.9238 25.0157 26.0654 24.9984 26.213C24.981 26.3607 24.9987 26.5104 25.05 26.65C24.9092 26.6632 24.768 26.628 24.65 26.55C24.5282 26.4633 24.4982 26.3465 24.4 26.2C24.3343 26.102 24.266 26.0478 24.2 25.95C24.1164 25.8259 24.0491 25.6914 24 25.55C23.9708 25.7685 23.8846 25.9754 23.75 26.15C23.7292 25.9975 23.6957 25.847 23.65 25.7C23.6058 25.558 23.5333 25.3926 23.5 25.3C23.425 25.0899 23.3747 24.8717 23.35 24.65C23.2387 24.9556 23.1713 25.2755 23.15 25.6C22.7829 25.3161 22.5336 24.9065 22.45 24.45V25.25C22.4865 25.4272 22.5542 25.5965 22.65 25.75C22.7613 25.9271 22.8813 26.0278 23 26.2C23.0551 26.2801 23.1052 26.3636 23.15 26.45L23.3 26.35C23.3182 26.4995 23.3182 26.6506 23.3 26.8C23.2664 27.0737 23.1762 27.2639 23.05 27.55C22.9988 27.666 22.9494 27.7813 22.9 27.9L23.6 26.9C23.6504 27.0659 23.7004 27.2325 23.75 27.4C23.812 27.5968 23.8621 27.7972 23.9 28C23.9426 28.2644 23.9594 28.5323 23.95 28.8C23.9297 29.3452 23.8286 29.8844 23.65 30.4L24.1 30.2L24.25 30.65L24.45 30.35C24.485 30.3994 24.5177 30.4487 24.55 30.5C24.6691 30.6899 24.7695 30.8908 24.85 31.1C25.045 31.5968 25.1977 32.0666 25.35 32.6C25.4941 33.105 25.6413 33.565 25.7 34C25.7746 34.5536 25.7642 35.0373 25.7 35.4C25.5833 36.0589 25.2824 36.6068 25.1 36.9C24.5817 37.7334 23.9516 38.701 23.6 39.1C23.3802 39.3512 23.1796 39.6186 23 39.9C22.7964 40.2312 22.6288 40.5832 22.5 40.95C22.4667 40.2833 22.4333 39.6167 22.4 38.95M22.4 5.55C22.3667 4.88333 22.3333 4.21667 22.3 3.55C22.1712 3.91682 22.0036 4.26881 21.8 4.6C21.6204 4.88137 21.4198 5.1488 21.2 5.4C20.8483 5.79905 20.2182 6.76665 19.7 7.6C19.5176 7.89325 19.2167 8.4411 19.1 9.1C19.0357 9.4627 19.0254 9.94645 19.1 10.5C19.1586 10.935 19.3059 11.395 19.45 11.9C19.6022 12.4335 19.755 12.9033 19.95 13.4C20.0305 13.6092 20.1309 13.8101 20.25 14C20.2823 14.0514 20.315 14.1007 20.35 14.15L20.55 13.85L20.7 14.3L21.15 14.1C20.9714 14.6156 20.8703 15.1548 20.85 15.7C20.8406 15.9677 20.8574 16.2356 20.9 16.5C20.9379 16.7028 20.988 16.9032 21.05 17.1C21.0996 17.2675 21.1496 17.4341 21.2 17.6L21.9 16.6C21.8505 16.7188 21.8011 16.8341 21.75 16.95C21.6237 17.2362 21.5335 17.4264 21.5 17.7C21.4818 17.8494 21.4818 18.0006 21.5 18.15L21.65 18.05C21.6948 18.1364 21.7449 18.2199 21.8 18.3C21.9186 18.4722 22.0387 18.573 22.15 18.75C22.2458 18.9035 22.3135 19.0728 22.35 19.25V20.05C22.2664 19.5935 22.0171 19.1839 21.65 18.9C21.6287 19.2245 21.5613 19.5444 21.45 19.85C21.4253 19.6283 21.375 19.4101 21.3 19.2C21.2666 19.1075 21.1941 18.9421 21.15 18.8C21.1043 18.653 21.0708 18.5025 21.05 18.35C20.9154 18.5246 20.8292 18.7315 20.8 18.95C20.7509 18.8086 20.6836 18.6741 20.6 18.55C20.534 18.4522 20.4656 18.398 20.4 18.3C20.3018 18.1535 20.2718 18.0368 20.15 17.95C20.032 17.872 19.8908 17.8368 19.75 17.85C19.8013 17.9896 19.819 18.1393 19.8016 18.287C19.7843 18.4346 19.7323 18.5762 19.65 18.7C19.6097 18.04 19.4398 17.3944 19.15 16.8C19.073 16.7258 18.9893 16.6588 18.9 16.6C18.7172 16.4802 18.5138 16.3954 18.3 16.35C17.8096 16.2299 17.3497 16.0085 16.95 15.7C17.3679 15.8413 17.8109 15.8924 18.25 15.85C17.9238 15.7356 17.6195 15.5665 17.35 15.35C17.4993 15.4175 17.6612 15.4524 17.825 15.4524C17.9888 15.4524 18.1507 15.4175 18.3 15.35L18.05 15.05H18.35C18.0735 14.5119 17.8015 13.9694 17.55 13.45C17.4379 13.2186 17.0621 12.5662 16.8 12.1C16.653 11.8385 16.3172 11.3086 15.85 10.9C15.2715 10.3941 14.6667 10.1436 14 9.95C13.0606 9.67725 12.2632 9.62 11.3 9.45C10.8489 9.37035 10.4018 9.27095 9.95 9.15L10.8 10.2L9.8 9.3C9.63355 9.1767 9.4478 9.0557 9.4 9.1C9.36135 9.13585 9.42445 9.2694 9.5 9.4L10.3 10.55L9.55 9.75C9.6639 10.5988 9.7823 11.5354 9.85 12.25C9.88 12.5661 10.0145 13.5018 10.3 14.25C10.4933 14.7567 10.7118 15.1477 11 15.5C11.2603 15.8184 11.6783 16.16 12.2 16.5C12.55 16.728 12.968 16.97 13.4 17.2C13.6164 17.315 13.9921 17.4995 14.3 17.65C14.4679 17.7321 14.63 17.8068 14.7934 17.875C14.9453 17.9384 15.0953 17.9959 15.25 18.05C15.205 17.826 15.15 17.5159 15.2 17.5C15.2711 17.4774 15.4812 18.077 15.6 18.05C15.7034 18.0265 15.6821 17.545 15.65 17.15C15.8959 17.525 16.0945 17.8995 16.2 18.25C16.2325 18.358 16.3064 18.6059 16.5 18.8C16.6821 18.9827 16.8861 19.0163 17.15 19.15C17.3121 19.2322 17.4365 19.3206 17.6 19.4C17.7602 19.4838 17.9321 19.5428 18.11 19.575C18.27 19.5984 18.39 19.58 18.55 19.6C18.7238 19.6223 18.8927 19.6729 19.05 19.75C18.6236 19.676 18.1677 19.6741 18.1 19.85C18.0891 19.8782 18.1141 19.9843 18.15 20.1C18.1682 20.1732 18.2023 20.2415 18.25 20.3C18.3306 20.3819 18.4361 20.4346 18.55 20.45C18.7153 20.4839 18.856 20.5829 19.05 20.65C19.5179 20.8121 19.8055 20.8816 19.8 20.95C19.7894 21.0804 18.842 21.0318 18.8 21.25C18.7786 21.3611 19.1034 21.507 19.6 21.8C19.7921 21.9151 19.9927 22.0154 20.2 22.1C20.3469 22.1588 20.4972 22.2089 20.65 22.25M22.4 44.2V38.95M22.4 44.2C22.351 43.5518 22.2165 42.9129 22 42.3C21.8048 41.7338 21.5358 41.1959 21.2 40.7C21.0142 40.4296 20.68 40.0495 20.35 39.7C19.8663 39.1877 19.425 38.8077 19 38.25C18.8386 38.0384 18.5716 37.6317 18.35 37.3C18.25 37.1506 18.15 37.0006 18.05 36.85L16 38.1C15.927 37.8665 15.8614 37.6367 15.8 37.4C15.6464 36.8078 15.5295 36.2066 15.45 35.6C15.2208 35.6802 14.987 35.747 14.75 35.8C14.3386 35.887 13.9203 35.9372 13.5 35.95C12.9926 35.9627 12.4031 35.9792 12 36C11.5857 36.0215 11.214 36.0743 10.8 36.1C10.4621 36.1119 10.1266 36.1623 9.8 36.25C9.41302 36.3678 9.04319 36.5359 8.7 36.75C8.255 37.02 7.61225 37.3942 7.1 37.7C7.38471 37.3582 7.63586 36.9899 7.85 36.6C8.0545 36.2342 8.22199 35.849 8.35 35.45C8.4797 35.0269 8.56352 34.591 8.6 34.15C8.6714 33.3014 8.7393 32.2928 8.7 31.85C8.64545 31.2357 8.78835 30.7219 8.8 30.2C8.8034 30.047 8.8074 29.6272 9.1 29.35C9.19969 29.2572 9.31947 29.1888 9.45 29.15C9.23265 29.1434 9.01675 29.1268 8.8 29.1C8.6179 29.0775 8.4083 29.0418 8.2 29C7.9856 28.957 7.77165 28.9061 7.55 28.85C7.2711 28.7795 6.99 28.7135 6.7 28.65C6.84 28.4544 6.97175 28.2569 7.1 28.05C7.20165 27.886 7.33175 27.6542 7.45 27.45C7.60625 27.1804 7.77085 26.9172 7.95 26.65C7.6078 26.3911 7.2794 26.1283 6.95 25.85C6.6887 25.6292 6.3536 25.3277 6.05 25.05C5.6036 24.6418 4.86365 23.9785 4.7643 23.875C4.6147 23.7191 4.20285 23.3253 3.7643 23.075C3.45661 22.9029 3.12923 22.7685 2.7893 22.675C2.13632 22.4895 1.47176 22.3475 0.799999 22.25M22.4 38.95C22.3667 39.6167 22.3333 40.2833 22.3 40.95C22.1712 40.5832 22.0036 40.2312 21.8 39.9C21.6204 39.6186 21.4198 39.3512 21.2 39.1C20.8483 38.701 20.2182 37.7334 19.7 36.9C19.5176 36.6068 19.2167 36.0589 19.1 35.4C19.0357 35.0373 19.0254 34.5536 19.1 34C19.1586 33.565 19.3059 33.105 19.45 32.6C19.6022 32.0666 19.755 31.5968 19.95 31.1C20.0305 30.8908 20.1309 30.6899 20.25 30.5C20.2823 30.4487 20.315 30.3994 20.35 30.35L20.55 30.65L20.7 30.2L21.15 30.4C20.9714 29.8844 20.8703 29.3452 20.85 28.8C20.8406 28.5323 20.8574 28.2644 20.9 28C20.9379 27.7972 20.988 27.5968 21.05 27.4C21.0996 27.2325 21.1496 27.0659 21.2 26.9L21.9 27.9C21.8505 27.7813 21.8011 27.666 21.75 27.55C21.6237 27.2639 21.5335 27.0737 21.5 26.8C21.4818 26.6506 21.4818 26.4995 21.5 26.35L21.65 26.45C21.6948 26.3636 21.7449 26.2801 21.8 26.2C21.9186 26.0278 22.0387 25.9271 22.15 25.75C22.2458 25.5965 22.3135 25.4272 22.35 25.25V24.45C22.2664 24.9065 22.0171 25.3161 21.65 25.6C21.6287 25.2755 21.5613 24.9556 21.45 24.65C21.4253 24.8717 21.375 25.0899 21.3 25.3C21.2666 25.3926 21.1941 25.558 21.15 25.7C21.1043 25.847 21.0708 25.9975 21.05 26.15C20.9154 25.9754 20.8292 25.7685 20.8 25.55C20.7509 25.6914 20.6836 25.8259 20.6 25.95C20.534 26.0478 20.4656 26.102 20.4 26.2C20.3018 26.3465 20.2718 26.4633 20.15 26.55C20.032 26.628 19.8908 26.6632 19.75 26.65C19.8013 26.5104 19.819 26.3607 19.8016 26.213C19.7843 26.0654 19.7323 25.9238 19.65 25.8C19.6097 26.46 19.4398 27.1057 19.15 27.7C19.073 27.7742 18.9893 27.8412 18.9 27.9C18.7172 28.0198 18.5138 28.1046 18.3 28.15C17.8096 28.2701 17.3497 28.4915 16.95 28.8C17.3679 28.6587 17.8109 28.6076 18.25 28.65C17.9238 28.7644 17.6195 28.9335 17.35 29.15C17.4993 29.0825 17.6612 29.0476 17.825 29.0476C17.9888 29.0476 18.1507 29.0825 18.3 29.15L18.05 29.45H18.35C18.0735 29.9881 17.8015 30.5307 17.55 31.05C17.4379 31.2814 17.0621 31.9338 16.8 32.4C16.653 32.6615 16.3172 33.1915 15.85 33.6C15.2715 34.1059 14.6667 34.3564 14 34.55C13.0606 34.8228 12.2632 34.88 11.3 35.05C10.8489 35.1297 10.4018 35.2291 9.95 35.35L10.8 34.3L9.8 35.2C9.63355 35.3233 9.4478 35.4443 9.4 35.4C9.36135 35.3642 9.42445 35.2306 9.5 35.1L10.3 33.95L9.55 34.75C9.6639 33.9013 9.7823 32.9647 9.85 32.25C9.88 31.934 10.0145 30.9982 10.3 30.25C10.4933 29.7433 10.7118 29.3524 11 29C11.2603 28.6817 11.6783 28.34 12.2 28C12.55 27.7721 12.968 27.53 13.4 27.3C13.6164 27.185 13.9921 27.0005 14.3 26.85C14.4679 26.7679 14.63 26.6932 14.7934 26.625C14.9453 26.5616 15.0953 26.5041 15.25 26.45C15.205 26.674 15.15 26.9841 15.2 27C15.2711 27.0227 15.4812 26.423 15.6 26.45C15.7034 26.4736 15.6821 26.955 15.65 27.35C15.8959 26.975 16.0945 26.6005 16.2 26.25C16.2325 26.1421 16.3064 25.8942 16.5 25.7C16.6821 25.5174 16.8861 25.4838 17.15 25.35C17.3121 25.2678 17.4365 25.1794 17.6 25.1C17.7602 25.0162 17.9321 24.9572 18.11 24.925C18.27 24.9016 18.39 24.92 18.55 24.9C18.7238 24.8777 18.8927 24.8271 19.05 24.75C18.6236 24.824 18.1677 24.8259 18.1 24.65C18.0891 24.6219 18.1141 24.5157 18.15 24.4C18.1682 24.3268 18.2023 24.2585 18.25 24.2C18.3306 24.1181 18.4361 24.0654 18.55 24.05C18.7153 24.0161 18.856 23.9172 19.05 23.85C19.5179 23.6879 19.8055 23.6184 19.8 23.55C19.7894 23.4197 18.842 23.4682 18.8 23.25C18.7786 23.139 19.1034 22.9931 19.6 22.7C19.7921 22.5849 19.9927 22.4846 20.2 22.4C20.3469 22.3412 20.4972 22.2911 20.65 22.25M0.799999 22.25H6.6M6.6 22.25L4.2 22.1C5.45345 21.1841 6.81895 20.2838 7.95 19.65C8.67 19.2465 9.37765 18.9268 10.3 18.9C11.075 18.8775 11.6097 19.0759 12.4 19.35C12.9594 19.5441 13.5164 19.7241 14.1 19.9C14.0846 19.9894 14.0505 20.0746 14 20.15C13.8839 20.3204 13.695 20.3875 13.7 20.4C13.7078 20.4192 14.1329 20.262 14.3 20.2L14.1 20.5L13.5 20.85C13.7329 20.9082 13.9761 20.9114 14.2104 20.8593C14.4447 20.8073 14.6637 20.7014 14.85 20.55C15.2185 20.5587 15.586 20.5921 15.95 20.65C16.3258 20.71 16.6312 20.8063 17 20.9C17.1748 20.9442 17.3429 21.0115 17.5 21.1C17.5517 21.1307 17.6018 21.1641 17.65 21.2C17.3732 21.5393 17.0107 21.7982 16.6 21.95C16.9545 21.919 17.2542 21.8206 17.5 21.65C17.6688 21.5329 17.797 21.395 18 21.4C18.2724 21.4069 18.4071 21.6654 18.7 21.9C18.9072 22.0629 19.1454 22.1819 19.4 22.25M6.6 22.25L4.2 22.4C5.45345 23.3159 6.81895 24.2162 7.95 24.85C8.67 25.2536 9.37765 25.5733 10.3 25.6C11.075 25.6225 11.6097 25.4242 12.4 25.15C12.9594 24.956 13.5164 24.776 14.1 24.6C14.0846 24.5106 14.0505 24.4254 14 24.35C13.8839 24.1797 13.695 24.1125 13.7 24.1C13.7078 24.0808 14.1329 24.238 14.3 24.3L14.1 24L13.5 23.65C13.7329 23.5918 13.9761 23.5886 14.2104 23.6407C14.4447 23.6927 14.6637 23.7986 14.85 23.95C15.2185 23.9413 15.586 23.9079 15.95 23.85C16.3258 23.79 16.6312 23.6937 17 23.6C17.1748 23.5558 17.3429 23.4885 17.5 23.4C17.5517 23.3693 17.6018 23.3359 17.65 23.3C17.3732 22.9607 17.0107 22.7018 16.6 22.55C16.9545 22.581 17.2542 22.6795 17.5 22.85C17.6688 22.9672 17.797 23.105 18 23.1C18.2724 23.0931 18.4071 22.8347 18.7 22.6C18.9072 22.4371 19.1454 22.3181 19.4 22.25M19.4 22.25H20.65" stroke="#000000"/>
</svg>
