<svg xmlns="http://www.w3.org/2000/svg" width="1000" height="1000" viewBox="0 0 1000 1000">
  <defs>
    <style>
      .cls-1 {
        stroke: #000;
        stroke-width: 1px;
        fill-rule: evenodd;
      }
    </style>
  </defs>
  <g id="Монтажная_область_1" data-name="Монтажная область 1">
    <path id="Фигура_1_копия_2" data-name="Фигура 1 копия 2" class="cls-1" d="M508,46a147.4,147.4,0,0,0,8,38,136.29,136.29,0,0,0,16,32c3.715,5.408,10.4,13.011,17,20,9.674,10.247,18.5,17.847,27,29,3.227,4.232,8.567,12.366,13,19q3,4.482,6,9l41-25c1.459,4.67,2.772,9.266,4,14a297.547,297.547,0,0,1,7,36,124.915,124.915,0,0,1,14-4,141.732,141.732,0,0,1,25-3c10.148-.253,21.938-0.583,30-1,8.285-.429,15.72-1.486,24-2a89.24,89.24,0,0,0,20-3,92.387,92.387,0,0,0,22-10c8.9-5.4,21.755-12.884,32-19a138.67,138.67,0,0,0-15,22,126,126,0,0,0-10,23,123.435,123.435,0,0,0-5,26c-1.428,16.973-2.786,37.144-2,46,1.091,12.286-1.767,22.563-2,33-0.068,3.061-.148,11.456-6,17a17.663,17.663,0,0,1-7,4c4.347,0.132,8.665.465,13,1,3.642,0.45,7.834,1.164,12,2,4.288,0.861,8.567,1.879,13,3,5.578,1.41,11.2,2.73,17,4-2.8,3.912-5.435,7.862-8,12-2.033,3.28-4.635,7.917-7,12-3.125,5.393-6.417,10.656-10,16,6.844,5.178,13.412,10.434,20,16,5.226,4.416,11.928,10.447,18,16,8.928,8.165,23.727,21.43,25.714,23.5,2.992,3.118,11.229,10.994,20,16a87.473,87.473,0,0,0,19.5,8A307.073,307.073,0,0,0,940,485H824l48-3c-25.069-18.318-52.379-36.324-75-49-14.4-8.071-28.553-14.465-47-15-15.5-.45-26.194,3.517-42,9-11.188,3.881-22.329,7.481-34,11a12.9,12.9,0,0,0,2,5c2.321,3.407,6.1,4.75,6,5-0.157.384-8.658-2.76-12-4l4,6,12,7a30.923,30.923,0,0,1-27-6,164.944,164.944,0,0,0-22,2c-7.516,1.2-13.624,3.126-21,5a40.691,40.691,0,0,0-10,4,34.287,34.287,0,0,0-3,2,49.041,49.041,0,0,0,21,15c-7.09-.62-13.084-2.589-18-6-3.377-2.343-5.941-5.1-10-5-5.449.138-8.142,5.307-14,10a38.917,38.917,0,0,1-14,7H543a80.535,80.535,0,0,0,9-3,87.974,87.974,0,0,0,12-6c9.932-5.861,16.428-8.779,16-11-0.841-4.364-19.788-3.393-20-6-0.111-1.368,5.641-2.758,15-6,3.879-1.343,6.694-3.322,10-4a10.371,10.371,0,0,0,6-3,10.221,10.221,0,0,0,2-4c0.718-2.314,1.217-4.437,1-5-1.355-3.518-10.473-3.48-19-2a31.972,31.972,0,0,1,10-3c3.2-.4,5.6-0.032,8.8-0.5A35.746,35.746,0,0,0,604,428c3.27-1.588,5.758-3.356,9-5,5.277-2.675,9.357-3.347,13-7,3.872-3.883,5.35-8.841,6-11,2.109-7.01,6.081-14.5,11-22-0.643,7.9-1.069,17.529,1,18,2.375,0.54,6.577-11.453,8-11,1,0.318-.1,6.52-1,11,3.093-1.082,6.093-2.232,9.131-3.5,3.269-1.364,6.51-2.858,9.869-4.5,6.157-3.01,13.671-6.7,18-9,8.639-4.6,17-9.441,24-14,10.433-6.8,18.793-13.633,24-20,5.763-7.047,10.133-14.866,14-25,5.71-14.964,8.4-33.679,9-40,1.354-14.293,3.722-33.025,6-50l-15,16,16-23c1.511-2.612,2.773-5.283,2-6-0.956-.886-4.671,1.534-8,4l-20,18,17-21c-9.036,2.419-17.978,4.407-27,6-19.265,3.4-35.213,4.545-54,10-13.335,3.872-25.43,8.882-37,19-9.344,8.171-16.06,18.77-19,24-5.242,9.324-12.759,22.372-15,27-5.03,10.387-10.471,21.238-16,32h6l-5,6a23.049,23.049,0,0,0,19,0,60.934,60.934,0,0,1-18,10,62.456,62.456,0,0,0,26-3,72.341,72.341,0,0,1-27,13,35.215,35.215,0,0,0-12,5,34.676,34.676,0,0,0-5,4,100.687,100.687,0,0,0-10,38,18.919,18.919,0,0,1-2-17,12.408,12.408,0,0,0-8,2c-2.436,1.735-3.036,4.07-5,7-1.313,1.96-2.68,3.044-4,5a34.692,34.692,0,0,0-4,8,25.084,25.084,0,0,0-5-12,55.674,55.674,0,0,1-2,9c-0.883,2.841-2.333,6.149-3,8a57.635,57.635,0,0,0-3,13,68.648,68.648,0,0,1-4-19,37.653,37.653,0,0,0-14,23V425a30.509,30.509,0,0,1,4-10c2.226-3.541,4.627-5.556,7-9a46.846,46.846,0,0,0,3-5l3,2a37.275,37.275,0,0,0,0-9c-0.671-5.473-2.475-9.277-5-15-1.023-2.319-2.011-4.625-3-7l14,20q1.512-4.976,3-10a102.85,102.85,0,0,0,3-12,82.382,82.382,0,0,0,1-16,110.343,110.343,0,0,0-6-32l9,4,3-9,4,6c0.7-.987,1.354-1.973,2-3a69.667,69.667,0,0,0,6-12c3.9-9.935,6.955-19.331,10-30,2.882-10.1,5.827-19.3,7-28,1.492-11.071,1.285-20.746,0-28-2.334-13.178-8.352-24.135-12-30-10.365-16.667-22.967-36.019-30-44a132.775,132.775,0,0,1-12-16,109.115,109.115,0,0,1-10-21q-1,20-2,40V46Zm0,878a147.4,147.4,0,0,1,8-38,136.29,136.29,0,0,1,16-32c3.715-5.408,10.4-13.011,17-20,9.674-10.247,18.5-17.847,27-29,3.227-4.232,8.567-12.366,13-19q3-4.482,6-9l41,25c1.459-4.67,2.772-9.266,4-14a297.547,297.547,0,0,0,7-36,124.915,124.915,0,0,0,14,4,141.732,141.732,0,0,0,25,3c10.148,0.253,21.938.583,30,1,8.285,0.429,15.72,1.486,24,2a89.24,89.24,0,0,1,20,3,92.387,92.387,0,0,1,22,10c8.9,5.4,21.755,12.884,32,19a138.67,138.67,0,0,1-15-22,126,126,0,0,1-10-23,123.435,123.435,0,0,1-5-26c-1.428-16.973-2.786-37.144-2-46,1.091-12.286-1.767-22.563-2-33-0.068-3.061-.148-11.456-6-17a17.663,17.663,0,0,0-7-4c4.347-.132,8.665-0.465,13-1,3.642-.45,7.834-1.164,12-2,4.288-.861,8.567-1.879,13-3,5.578-1.41,11.2-2.73,17-4-2.8-3.912-5.435-7.862-8-12-2.033-3.28-4.635-7.917-7-12-3.125-5.393-6.417-10.656-10-16,6.844-5.178,13.412-10.434,20-16,5.226-4.416,11.928-10.447,18-16,8.928-8.165,23.727-21.43,25.714-23.5,2.992-3.118,11.229-10.994,20-16a87.473,87.473,0,0,1,19.5-8A307.073,307.073,0,0,1,940,485H824l48,3c-25.069,18.318-52.379,36.324-75,49-14.4,8.071-28.553,14.465-47,15-15.5.45-26.194-3.517-42-9-11.188-3.881-22.329-7.481-34-11a12.9,12.9,0,0,1,2-5c2.321-3.407,6.1-4.75,6-5-0.157-.384-8.658,2.76-12,4l4-6,12-7a30.923,30.923,0,0,0-27,6,164.944,164.944,0,0,1-22-2c-7.516-1.2-13.624-3.126-21-5a40.691,40.691,0,0,1-10-4,34.287,34.287,0,0,1-3-2,49.041,49.041,0,0,1,21-15c-7.09.62-13.084,2.589-18,6-3.377,2.343-5.941,5.1-10,5-5.449-.138-8.142-5.307-14-10a38.917,38.917,0,0,0-14-7H543a80.535,80.535,0,0,1,9,3,87.974,87.974,0,0,1,12,6c9.932,5.861,16.428,8.779,16,11-0.841,4.364-19.788,3.393-20,6-0.111,1.368,5.641,2.758,15,6,3.879,1.343,6.694,3.322,10,4a10.371,10.371,0,0,1,6,3,10.221,10.221,0,0,1,2,4c0.718,2.314,1.217,4.437,1,5-1.355,3.518-10.473,3.48-19,2a31.972,31.972,0,0,0,10,3c3.2,0.4,5.6.032,8.8,0.5A35.746,35.746,0,0,1,604,542c3.27,1.588,5.758,3.356,9,5,5.277,2.675,9.357,3.347,13,7,3.872,3.883,5.35,8.841,6,11,2.109,7.01,6.081,14.5,11,22-0.643-7.9-1.069-17.529,1-18,2.375-.54,6.577,11.453,8,11,1-.318-0.1-6.52-1-11,3.093,1.082,6.093,2.232,9.131,3.5,3.269,1.364,6.51,2.858,9.869,4.5,6.157,3.01,13.671,6.7,18,9,8.639,4.6,17,9.441,24,14,10.433,6.8,18.793,13.633,24,20,5.763,7.047,10.133,14.866,14,25,5.71,14.964,8.4,33.679,9,40,1.354,14.293,3.722,33.025,6,50l-15-16,16,23c1.511,2.612,2.773,5.283,2,6-0.956.886-4.671-1.534-8-4l-20-18,17,21c-9.036-2.419-17.978-4.407-27-6-19.265-3.4-35.213-4.545-54-10-13.335-3.872-25.43-8.882-37-19-9.344-8.171-16.06-18.77-19-24-5.242-9.324-12.759-22.372-15-27-5.03-10.387-10.471-21.238-16-32h6l-5-6a23.049,23.049,0,0,1,19,0,60.934,60.934,0,0,0-18-10,62.456,62.456,0,0,1,26,3,72.341,72.341,0,0,0-27-13,35.215,35.215,0,0,1-12-5,34.676,34.676,0,0,1-5-4,100.687,100.687,0,0,1-10-38,18.919,18.919,0,0,0-2,17,12.408,12.408,0,0,1-8-2c-2.436-1.735-3.036-4.07-5-7-1.313-1.96-2.68-3.044-4-5a34.692,34.692,0,0,1-4-8,25.084,25.084,0,0,1-5,12,55.674,55.674,0,0,0-2-9c-0.883-2.841-2.333-6.149-3-8a57.635,57.635,0,0,1-3-13,68.648,68.648,0,0,0-4,19,37.653,37.653,0,0,1-14-23v16a30.509,30.509,0,0,0,4,10c2.226,3.541,4.627,5.556,7,9a46.846,46.846,0,0,1,3,5l3-2a37.275,37.275,0,0,1,0,9c-0.671,5.473-2.475,9.277-5,15-1.023,2.319-2.011,4.625-3,7l14-20q1.512,4.976,3,10a102.85,102.85,0,0,1,3,12,82.382,82.382,0,0,1,1,16,110.343,110.343,0,0,1-6,32l9-4,3,9,4-6c0.7,0.987,1.354,1.973,2,3a69.667,69.667,0,0,1,6,12c3.9,9.935,6.955,19.331,10,30,2.882,10.1,5.827,19.3,7,28,1.492,11.071,1.285,20.746,0,28-2.334,13.178-8.352,24.135-12,30-10.365,16.667-22.967,36.019-30,44a132.775,132.775,0,0,0-12,16,109.115,109.115,0,0,0-10,21q-1-20-2-40V924Zm0-878a147.4,147.4,0,0,1-8,38,136.29,136.29,0,0,1-16,32c-3.715,5.408-10.4,13.011-17,20-9.674,10.247-18.5,17.847-27,29-3.227,4.232-8.567,12.366-13,19q-3,4.482-6,9l-41-25c-1.459,4.67-2.772,9.266-4,14a297.547,297.547,0,0,0-7,36,124.915,124.915,0,0,0-14-4,141.732,141.732,0,0,0-25-3c-10.148-.253-21.938-0.583-30-1-8.285-.429-15.72-1.486-24-2a89.24,89.24,0,0,1-20-3,92.387,92.387,0,0,1-22-10c-8.9-5.4-21.755-12.884-32-19a138.67,138.67,0,0,1,15,22,126,126,0,0,1,10,23,123.435,123.435,0,0,1,5,26c1.428,16.973,2.786,37.144,2,46-1.091,12.286,1.767,22.563,2,33,0.068,3.061.148,11.456,6,17a17.663,17.663,0,0,0,7,4c-4.347.132-8.665,0.465-13,1-3.642.45-7.834,1.164-12,2-4.288.861-8.567,1.879-13,3-5.578,1.41-11.2,2.73-17,4,2.8,3.912,5.435,7.862,8,12,2.033,3.28,4.635,7.917,7,12,3.125,5.393,6.417,10.656,10,16-6.844,5.178-13.412,10.434-20,16-5.226,4.416-11.928,10.447-18,16-8.928,8.165-23.727,21.43-25.714,23.5-2.992,3.118-11.229,10.994-20,16a87.473,87.473,0,0,1-19.5,8A307.081,307.081,0,0,1,76,485H192l-48-3c25.069-18.318,52.379-36.324,75-49,14.4-8.071,28.553-14.465,47-15,15.5-.45,26.194,3.517,42,9,11.188,3.881,22.329,7.481,34,11a12.9,12.9,0,0,1-2,5c-2.321,3.407-6.1,4.75-6,5,0.157,0.384,8.658-2.76,12-4l-4,6-12,7a30.923,30.923,0,0,0,27-6,164.944,164.944,0,0,1,22,2c7.516,1.2,13.624,3.126,21,5a40.691,40.691,0,0,1,10,4,34.287,34.287,0,0,1,3,2,49.041,49.041,0,0,1-21,15c7.09-.62,13.084-2.589,18-6,3.377-2.343,5.941-5.1,10-5,5.449,0.138,8.142,5.307,14,10a38.917,38.917,0,0,0,14,7h25a80.535,80.535,0,0,1-9-3,87.974,87.974,0,0,1-12-6c-9.932-5.861-16.428-8.779-16-11,0.841-4.364,19.788-3.393,20-6,0.111-1.368-5.641-2.758-15-6-3.879-1.343-6.694-3.322-10-4a10.371,10.371,0,0,1-6-3,10.221,10.221,0,0,1-2-4c-0.718-2.314-1.217-4.437-1-5,1.355-3.518,10.473-3.48,19-2a31.972,31.972,0,0,0-10-3c-3.2-.4-5.6-0.032-8.8-0.5A35.746,35.746,0,0,1,412,428c-3.27-1.588-5.758-3.356-9-5-5.277-2.675-9.357-3.347-13-7-3.872-3.883-5.35-8.841-6-11-2.109-7.01-6.081-14.5-11-22,0.643,7.9,1.069,17.529-1,18-2.375.54-6.577-11.453-8-11-1,.318.1,6.52,1,11-3.093-1.082-6.093-2.232-9.131-3.5-3.269-1.364-6.51-2.858-9.869-4.5-6.157-3.01-13.671-6.7-18-9-8.639-4.6-17-9.441-24-14-10.433-6.8-18.793-13.633-24-20-5.763-7.047-10.133-14.866-14-25-5.71-14.964-8.4-33.679-9-40-1.354-14.293-3.722-33.025-6-50l15,16-16-23c-1.511-2.612-2.773-5.283-2-6,0.956-.886,4.671,1.534,8,4l20,18-17-21c9.036,2.419,17.978,4.407,27,6,19.265,3.4,35.213,4.545,54,10,13.335,3.872,25.43,8.882,37,19,9.344,8.171,16.06,18.77,19,24,5.242,9.324,12.759,22.372,15,27,5.03,10.387,10.471,21.238,16,32h-6l5,6a23.049,23.049,0,0,1-19,0,60.934,60.934,0,0,0,18,10,62.456,62.456,0,0,1-26-3,72.341,72.341,0,0,0,27,13,35.215,35.215,0,0,1,12,5,34.676,34.676,0,0,1,5,4,100.687,100.687,0,0,1,10,38,18.919,18.919,0,0,0,2-17,12.408,12.408,0,0,1,8,2c2.436,1.735,3.036,4.07,5,7,1.313,1.96,2.68,3.044,4,5a34.692,34.692,0,0,1,4,8,25.084,25.084,0,0,1,5-12,55.674,55.674,0,0,0,2,9c0.883,2.841,2.333,6.149,3,8a57.635,57.635,0,0,1,3,13,68.648,68.648,0,0,0,4-19,37.653,37.653,0,0,1,14,23V425a30.509,30.509,0,0,0-4-10c-2.226-3.541-4.627-5.556-7-9a46.846,46.846,0,0,1-3-5l-3,2a37.275,37.275,0,0,1,0-9c0.671-5.473,2.475-9.277,5-15,1.023-2.319,2.011-4.625,3-7l-14,20q-1.512-4.976-3-10a102.85,102.85,0,0,1-3-12,82.382,82.382,0,0,1-1-16,110.343,110.343,0,0,1,6-32l-9,4-3-9-4,6c-0.7-.987-1.354-1.973-2-3a69.667,69.667,0,0,1-6-12c-3.9-9.935-6.955-19.331-10-30-2.882-10.1-5.827-19.3-7-28-1.492-11.071-1.285-20.746,0-28,2.334-13.178,8.352-24.135,12-30,10.365-16.667,22.967-36.019,30-44a132.775,132.775,0,0,0,12-16,109.115,109.115,0,0,0,10-21q1,20,2,40V46Zm0,878a147.4,147.4,0,0,0-8-38,136.29,136.29,0,0,0-16-32c-3.715-5.408-10.4-13.011-17-20-9.674-10.247-18.5-17.847-27-29-3.227-4.232-8.567-12.366-13-19q-3-4.482-6-9l-41,25c-1.459-4.67-2.772-9.266-4-14a297.547,297.547,0,0,1-7-36,124.915,124.915,0,0,1-14,4,141.732,141.732,0,0,1-25,3c-10.148.253-21.938,0.583-30,1-8.285.429-15.72,1.486-24,2a89.24,89.24,0,0,0-20,3,92.387,92.387,0,0,0-22,10c-8.9,5.4-21.755,12.884-32,19a138.67,138.67,0,0,0,15-22,126,126,0,0,0,10-23,123.435,123.435,0,0,0,5-26c1.428-16.973,2.786-37.144,2-46-1.091-12.286,1.767-22.563,2-33,0.068-3.061.148-11.456,6-17a17.663,17.663,0,0,1,7-4c-4.347-.132-8.665-0.465-13-1-3.642-.45-7.834-1.164-12-2-4.288-.861-8.567-1.879-13-3-5.578-1.41-11.2-2.73-17-4,2.8-3.912,5.435-7.862,8-12,2.033-3.28,4.635-7.917,7-12,3.125-5.393,6.417-10.656,10-16-6.844-5.178-13.412-10.434-20-16-5.226-4.416-11.928-10.447-18-16-8.928-8.165-23.727-21.43-25.714-23.5-2.992-3.118-11.229-10.994-20-16a87.473,87.473,0,0,0-19.5-8A307.081,307.081,0,0,0,76,485H192l-48,3c25.069,18.318,52.379,36.324,75,49,14.4,8.071,28.553,14.465,47,15,15.5,0.45,26.194-3.517,42-9,11.188-3.881,22.329-7.481,34-11a12.9,12.9,0,0,0-2-5c-2.321-3.407-6.1-4.75-6-5,0.157-.384,8.658,2.76,12,4l-4-6-12-7a30.923,30.923,0,0,1,27,6,164.944,164.944,0,0,0,22-2c7.516-1.2,13.624-3.126,21-5a40.691,40.691,0,0,0,10-4,34.287,34.287,0,0,0,3-2,49.041,49.041,0,0,0-21-15c7.09,0.62,13.084,2.589,18,6,3.377,2.343,5.941,5.1,10,5,5.449-.138,8.142-5.307,14-10a38.917,38.917,0,0,1,14-7h25a80.535,80.535,0,0,0-9,3,87.974,87.974,0,0,0-12,6c-9.932,5.861-16.428,8.779-16,11,0.841,4.364,19.788,3.393,20,6,0.111,1.368-5.641,2.758-15,6-3.879,1.343-6.694,3.322-10,4a10.371,10.371,0,0,0-6,3,10.221,10.221,0,0,0-2,4c-0.718,2.314-1.217,4.437-1,5,1.355,3.518,10.473,3.48,19,2a31.972,31.972,0,0,1-10,3c-3.2.4-5.6,0.032-8.8,0.5A35.746,35.746,0,0,0,412,542c-3.27,1.588-5.758,3.356-9,5-5.277,2.675-9.357,3.347-13,7-3.872,3.883-5.35,8.841-6,11-2.109,7.01-6.081,14.5-11,22,0.643-7.9,1.069-17.529-1-18-2.375-.54-6.577,11.453-8,11-1-.318.1-6.52,1-11-3.093,1.082-6.093,2.232-9.131,3.5-3.269,1.364-6.51,2.858-9.869,4.5-6.157,3.01-13.671,6.7-18,9-8.639,4.6-17,9.441-24,14-10.433,6.8-18.793,13.633-24,20-5.763,7.047-10.133,14.866-14,25-5.71,14.964-8.4,33.679-9,40-1.354,14.293-3.722,33.025-6,50l15-16-16,23c-1.511,2.612-2.773,5.283-2,6,0.956,0.886,4.671-1.534,8-4l20-18-17,21c9.036-2.419,17.978-4.407,27-6,19.265-3.4,35.213-4.545,54-10,13.335-3.872,25.43-8.882,37-19,9.344-8.171,16.06-18.77,19-24,5.242-9.324,12.759-22.372,15-27,5.03-10.387,10.471-21.238,16-32h-6l5-6a23.049,23.049,0,0,0-19,0,60.934,60.934,0,0,1,18-10,62.456,62.456,0,0,0-26,3,72.341,72.341,0,0,1,27-13,35.215,35.215,0,0,0,12-5,34.676,34.676,0,0,0,5-4,100.687,100.687,0,0,0,10-38,18.919,18.919,0,0,1,2,17,12.408,12.408,0,0,0,8-2c2.436-1.735,3.036-4.07,5-7,1.313-1.96,2.68-3.044,4-5a34.692,34.692,0,0,0,4-8,25.084,25.084,0,0,0,5,12,55.674,55.674,0,0,1,2-9c0.883-2.841,2.333-6.149,3-8a57.635,57.635,0,0,0,3-13,68.648,68.648,0,0,1,4,19,37.653,37.653,0,0,0,14-23v16a30.509,30.509,0,0,1-4,10c-2.226,3.541-4.627,5.556-7,9a46.846,46.846,0,0,0-3,5l-3-2a37.275,37.275,0,0,0,0,9c0.671,5.473,2.475,9.277,5,15,1.023,2.319,2.011,4.625,3,7l-14-20q-1.512,4.976-3,10a102.85,102.85,0,0,0-3,12,82.382,82.382,0,0,0-1,16,110.343,110.343,0,0,0,6,32l-9-4-3,9-4-6c-0.7.987-1.354,1.973-2,3a69.667,69.667,0,0,0-6,12c-3.9,9.935-6.955,19.331-10,30-2.882,10.1-5.827,19.3-7,28-1.492,11.071-1.285,20.746,0,28,2.334,13.178,8.352,24.135,12,30,10.365,16.667,22.967,36.019,30,44a132.775,132.775,0,0,1,12,16,109.115,109.115,0,0,1,10,21q1-20,2-40V924Z"/>
  </g>
</svg>
